<svg version="1.1" id="Layer_1" xmlns="http://www.w3.org/2000/svg" xmlns:xlink="http://www.w3.org/1999/xlink" x="0px" y="0px"
	 width="100%" viewBox="0 0 500 500" enable-background="new 0 0 500 500" xml:space="preserve">
<path fill="#190482" opacity="1.000000" stroke="none" 
	d="
M320.000000,501.000000 
	C213.333359,501.000000 107.166718,501.000000 1.000057,501.000000 
	C1.000038,334.333405 1.000038,167.666794 1.000019,1.000146 
	C167.666565,1.000098 334.333130,1.000098 500.999756,1.000049 
	C500.999847,167.666519 500.999847,334.333038 500.999939,500.999786 
	C440.833344,501.000000 380.666656,501.000000 320.000000,501.000000 
M189.244492,168.871658 
	C184.098892,166.767715 182.087219,162.752762 182.151932,157.401321 
	C182.207367,152.817184 182.163391,148.231827 182.163391,143.802521 
	C166.283401,141.328979 159.953598,146.696945 158.936646,161.696411 
	C156.560043,196.750061 153.955841,231.788849 151.296356,266.822479 
	C150.249298,280.615417 154.960007,285.999573 168.724701,286.000519 
	C215.212112,286.003693 261.699524,286.004089 308.186951,285.992920 
	C310.015839,285.992462 311.880585,286.066895 313.666718,285.753632 
	C318.538574,284.899139 321.945892,280.771515 321.990112,275.939240 
	C322.035187,271.014435 318.812500,266.911407 313.893188,265.989044 
	C311.619659,265.562775 309.258759,265.471741 306.936279,265.459534 
	C296.272797,265.403473 285.607697,265.521454 274.945557,265.389130 
	C268.910431,265.314270 264.977539,261.512543 264.734589,255.984467 
	C264.492157,250.467789 268.081482,246.228638 273.871765,245.363510 
	C275.506683,245.119247 277.194183,245.182587 278.857666,245.180664 
	C292.853851,245.164505 306.850677,245.241013 320.845978,245.128235 
	C327.174286,245.077240 331.699890,240.734100 331.738800,235.111145 
	C331.777283,229.550247 327.258667,225.259674 320.942108,224.921249 
	C319.113922,224.823288 317.277740,224.853119 315.445282,224.857422 
	C297.284515,224.900070 279.123657,225.004776 260.963074,224.969269 
	C254.042068,224.955750 249.833145,220.986221 249.815826,214.867706 
	C249.798447,208.728546 253.990967,204.936340 260.927368,204.868866 
	C271.420746,204.766785 281.914429,204.695358 292.407898,204.602509 
	C293.739899,204.590729 295.079712,204.609634 296.401825,204.475616 
	C302.580658,203.849274 306.725952,199.722824 306.684601,194.302322 
	C306.643005,188.849930 302.420441,184.387802 296.367493,184.151886 
	C288.547760,183.847107 280.707153,184.125565 272.879272,183.966919 
	C265.639130,183.820221 261.147644,177.787842 263.039459,171.024277 
	C264.295135,166.535049 268.114960,163.901199 273.790497,163.884445 
	C290.619110,163.834747 307.448029,163.845657 324.276733,163.871902 
	C329.518585,163.880081 333.889709,162.370529 335.920746,157.084518 
	C338.682465,149.896774 333.420624,143.293137 324.463806,143.234528 
	C299.644867,143.072037 274.823975,143.224319 250.004532,143.109695 
	C246.628647,143.094116 245.737396,144.372620 245.777740,147.518021 
	C245.837311,152.161362 245.923126,156.889389 245.147949,161.436478 
	C244.224747,166.851868 239.507446,169.791153 234.061554,169.239395 
	C228.980072,168.724564 225.250870,164.946762 224.948975,159.656921 
	C224.730957,155.836365 224.624832,151.977005 224.914185,148.168793 
	C225.215820,144.198853 223.769730,142.592255 219.829956,143.145462 
	C218.849609,143.283142 217.832031,143.131454 216.833893,143.171188 
	C212.541428,143.342087 206.736862,141.943726 204.390778,144.174698 
	C202.123032,146.331192 203.417389,152.234802 203.151321,156.492722 
	C203.130569,156.824829 203.149338,157.159210 203.139389,157.492218 
	C202.881973,166.096832 198.733643,169.756653 189.244492,168.871658 
M203.686356,92.044914 
	C194.973450,96.132896 188.538681,102.626572 187.959534,112.340271 
	C187.039749,127.767075 187.286636,143.269363 187.278305,158.739868 
	C187.276520,162.063538 189.240555,164.447098 193.047577,164.155563 
	C196.477219,163.892914 197.960129,161.757126 198.008347,158.464478 
	C198.025406,157.299179 198.014069,156.133469 198.014160,154.967941 
	C198.015244,142.480164 198.009705,129.992386 198.019485,117.504601 
	C198.024429,111.195351 200.532776,106.161316 206.029388,102.959122 
	C216.882523,96.636353 229.593658,104.157791 229.901077,117.307877 
	C230.208420,130.454575 230.022461,143.614014 229.958817,156.767395 
	C229.940414,160.571655 230.280945,164.078522 235.145615,164.133530 
	C239.965103,164.188034 240.564224,160.769043 240.550125,156.917633 
	C240.502579,143.930511 240.556747,130.943054 240.526474,117.955841 
	C240.479630,97.856400 223.557495,85.614174 203.686356,92.044914 
M41.597115,357.856934 
	C42.679840,358.571594 43.744801,359.870117 44.848236,359.903656 
	C50.826576,360.085541 56.824631,360.160706 62.795715,359.865051 
	C67.407143,359.636719 71.748741,358.305725 73.816727,353.509857 
	C75.849648,348.795410 74.552773,344.764496 70.829971,341.491547 
	C76.690331,333.014557 73.793434,325.959534 63.720398,324.725922 
	C57.979195,324.022797 52.101875,324.511383 46.303997,324.162018 
	C42.557549,323.936310 41.352142,325.336853 41.433624,329.022400 
	C41.639355,338.327972 41.519703,347.640686 41.597115,357.856934 
M183.010864,351.072510 
	C183.058792,349.988525 183.106720,348.904541 183.218979,346.364868 
	C186.282364,350.907867 188.568771,354.279785 190.835480,357.664948 
	C193.626266,361.832733 197.808624,359.668518 201.366943,359.639923 
	C201.957764,359.635193 202.969101,356.165436 203.017532,354.277191 
	C203.209625,346.786011 203.097427,339.287048 203.096573,331.790955 
	C203.095657,323.738098 202.804977,323.354309 194.640991,324.376099 
	C193.335632,324.539459 191.470596,326.479034 191.252411,327.822876 
	C190.747070,330.935272 191.091705,334.185699 191.091705,337.380157 
	C187.711533,333.850037 185.506042,330.166290 183.186905,326.555511 
	C180.602051,322.531067 176.554764,324.553162 173.117767,324.485016 
	C172.438324,324.471527 171.126801,326.555450 171.107880,327.688812 
	C170.946762,337.347687 170.965591,347.011108 171.090088,356.671082 
	C171.103912,357.743774 171.855423,359.407562 172.704987,359.772552 
	C178.759628,362.373413 183.002914,359.462158 183.009644,352.917999 
	C183.009979,352.584839 183.009995,352.251678 183.010864,351.072510 
M379.598938,333.017334 
	C373.052277,334.251160 370.420929,336.614838 369.639252,342.896210 
	C369.257080,345.967804 369.416138,349.217529 369.970215,352.270477 
	C370.955231,357.697784 374.932648,361.289337 380.185089,360.274597 
	C385.413666,359.264435 390.424469,360.031311 395.524841,360.044556 
	C398.015991,360.050995 399.138763,359.289642 399.113098,356.629395 
	C399.018585,346.822327 399.141937,337.012695 398.982880,327.207275 
	C398.965057,326.107758 397.766876,324.183533 396.950073,324.089966 
	C393.758606,323.724243 390.500458,323.940582 386.970886,323.940582 
	C386.970886,327.967712 386.970886,331.101593 386.970886,334.370178 
	C384.568237,333.871735 382.492767,333.441162 379.598938,333.017334 
M325.800049,360.003967 
	C326.633118,360.005341 327.486694,359.887970 328.295898,360.027588 
	C333.104980,360.857452 334.246368,358.589233 334.034149,354.154419 
	C333.707977,347.338806 333.948547,340.496094 333.948517,333.664856 
	C333.948456,323.222839 333.948151,323.219666 323.247894,324.073792 
	C322.954346,324.097229 322.680481,324.367615 322.011749,324.734283 
	C321.857849,327.728516 321.692352,330.948730 321.524109,334.221863 
	C310.430756,331.641846 304.760468,335.007904 304.119385,344.365295 
	C303.972198,346.513702 303.974365,348.723267 304.301147,350.844116 
	C305.460632,358.369751 311.149017,361.863495 318.495392,360.037170 
	C320.511505,359.535950 322.762085,359.978088 325.800049,360.003967 
M124.905785,353.343262 
	C124.904213,348.017059 124.812538,342.688690 124.938599,337.365509 
	C125.002838,334.652954 124.083504,333.277039 121.237762,333.424316 
	C119.577957,333.510223 117.904076,333.522430 116.246689,333.413391 
	C113.225899,333.214661 112.044098,334.556854 112.189919,337.549652 
	C112.343628,340.704315 112.469193,343.903137 112.095680,347.021423 
	C111.926628,348.432861 110.521317,349.696198 109.676857,351.026733 
	C108.868103,349.627289 107.520248,348.286499 107.360298,346.816467 
	C107.002251,343.525787 107.460304,340.146790 107.109764,336.854492 
	C106.981918,335.653687 105.619255,333.768646 104.619461,333.628784 
	C101.572182,333.202454 98.427246,333.474121 94.879349,333.474121 
	C94.879349,339.522339 94.693787,344.831116 94.922012,350.122040 
	C95.281342,358.452271 101.606117,362.413055 109.590782,359.713440 
	C110.953941,359.252594 112.749702,359.352631 114.139900,359.813721 
	C120.419228,361.896301 124.789780,359.743408 124.905785,353.343262 
M351.573151,359.246216 
	C355.125458,359.501221 358.683868,359.980988 362.226685,359.885040 
	C363.410187,359.852966 365.530701,358.378265 365.556519,357.513245 
	C365.719482,352.054810 365.856964,346.523071 365.135162,341.131683 
	C364.443604,335.966675 360.131714,333.369965 353.554932,333.027893 
	C345.864166,332.627899 340.745422,335.007050 338.948212,339.883118 
	C338.807037,340.266144 339.118134,340.815887 339.378937,342.036804 
	C343.843048,341.705109 348.348907,341.370300 352.854736,341.035522 
	C352.919556,341.439667 352.984406,341.843781 353.049225,342.247925 
	C349.873169,343.087097 346.636658,343.748749 343.534698,344.805420 
	C338.394867,346.556366 336.200745,349.844086 337.048615,353.994263 
	C337.821594,357.777924 341.844177,360.607483 346.550568,360.480713 
	C348.015137,360.441315 349.466797,359.924255 351.573151,359.246216 
M220.702332,333.027161 
	C209.660095,334.294128 205.122101,340.666779 207.676544,351.319092 
	C209.214890,357.734131 214.293839,360.824066 222.804733,360.522858 
	C231.188461,360.226135 235.591049,357.047699 236.771149,350.439850 
	C238.750595,339.356354 233.554565,333.390991 220.702332,333.027161 
M131.234238,337.806580 
	C127.465424,343.489441 127.135475,349.558472 130.744995,355.152588 
	C134.362366,360.758850 140.442017,361.049255 146.422562,360.175873 
	C151.147202,359.485931 155.307053,357.739685 157.019821,351.672546 
	C151.408798,351.672546 146.315826,351.672546 141.222870,351.672546 
	C141.269379,351.076416 141.315903,350.480316 141.362427,349.884186 
	C145.279602,349.884186 149.207657,349.702667 153.110764,349.937042 
	C156.751358,350.155640 157.796249,348.690277 157.377380,345.232239 
	C156.767273,340.195374 154.597000,336.178497 149.837494,334.344818 
	C143.379578,331.856720 137.112869,332.256714 131.234238,337.806580 
M285.675629,352.543274 
	C286.235809,351.664246 286.735840,350.079224 287.366364,350.025482 
	C290.505829,349.757904 293.693481,349.704559 296.837738,349.935699 
	C300.540558,350.207886 301.399323,348.540466 301.113129,345.181549 
	C300.426086,337.118713 293.966553,332.238251 284.755859,333.058838 
	C277.360260,333.717712 272.767273,338.242279 272.153717,345.473358 
	C271.544556,352.652740 274.929565,358.103516 281.070343,359.831482 
	C288.939880,362.045837 297.278076,359.478241 300.080231,353.922180 
	C300.335449,353.416138 300.184082,352.705017 300.295441,350.872925 
	C295.349243,351.573181 290.892517,352.204163 285.675629,352.543274 
M418.818207,352.228424 
	C417.830597,352.032715 416.843018,351.837006 415.855408,351.641327 
	C415.987122,351.052307 416.118805,350.463287 416.250488,349.874268 
	C420.378357,349.874268 424.507721,349.807495 428.633606,349.898346 
	C431.276337,349.956573 432.029022,348.721008 432.014404,346.232727 
	C431.963898,337.639221 424.794403,332.003601 415.099976,333.086090 
	C407.944916,333.885040 403.434509,338.463104 402.997559,345.369995 
	C402.502838,353.190277 405.727814,358.289093 412.195007,359.911499 
	C420.374146,361.963379 428.204681,359.335510 430.922394,353.581635 
	C431.098206,353.209412 430.880371,352.651245 430.819916,351.830933 
	C427.017456,351.830933 423.283844,351.830933 418.818207,352.228424 
M316.175232,191.217163 
	C315.201416,200.465714 318.865936,204.557037 328.207947,204.618561 
	C331.706696,204.641617 335.209961,204.722015 338.703827,204.586731 
	C344.828613,204.349594 348.962097,200.352432 349.121796,194.696960 
	C349.282593,189.002640 345.416962,184.642548 339.348053,184.153458 
	C335.373627,183.833176 331.357147,184.027740 327.359436,184.005295 
	C322.438446,183.977676 318.634949,185.857071 316.175232,191.217163 
M440.970978,334.143982 
	C437.209656,335.862213 434.419281,338.323425 435.034332,342.911865 
	C435.651550,347.516327 439.312012,348.875641 443.094971,349.990845 
	C445.048309,350.566681 447.003174,351.137390 448.957367,351.710419 
	C448.878845,351.942261 448.800323,352.174072 448.721832,352.405884 
	C444.093964,352.405884 439.466095,352.405884 434.838226,352.405884 
	C434.503418,352.782196 434.168610,353.158508 433.833801,353.534851 
	C435.657318,355.314453 437.184814,357.715210 439.361969,358.752777 
	C445.030396,361.454224 451.217529,361.471588 456.774323,358.795776 
	C459.127289,357.662720 461.722992,354.219604 461.731293,351.817871 
	C461.739777,349.384094 459.066467,346.488403 456.857880,344.645966 
	C455.158234,343.228119 452.358276,343.129272 448.895660,342.102234 
	C453.674957,341.830658 457.227081,341.628815 460.867767,341.421967 
	C459.245605,334.200653 451.518433,331.408051 440.970978,334.143982 
M248.209808,357.496094 
	C251.745499,361.789642 259.248077,361.066864 261.355438,356.211517 
	C262.347931,353.924744 263.267456,351.606262 264.219971,349.302155 
	C266.272125,344.338043 268.324249,339.373932 270.302429,334.588745 
	C258.866089,329.807007 257.044098,337.836914 254.748535,346.157288 
	C252.855682,341.390747 252.359818,336.747040 249.789810,334.670898 
	C247.444305,332.776123 242.851578,333.663116 238.228043,333.228027 
	C241.871384,342.048584 244.908142,349.400574 248.209808,357.496094 
M90.364296,345.494812 
	C90.364235,340.840820 90.365463,336.186798 90.363815,331.532806 
	C90.360931,323.365753 89.795273,322.791718 81.571312,324.018860 
	C80.460983,324.184540 78.749245,325.890625 78.727066,326.914001 
	C78.511078,336.881958 78.526230,346.857605 78.696526,356.827301 
	C78.714561,357.883698 79.971588,359.603821 80.947807,359.849945 
	C88.356880,361.717987 90.359261,360.058716 90.363922,352.474792 
	C90.365143,350.480225 90.364380,348.485657 90.364296,345.494812 
M349.756927,271.007538 
	C344.570679,264.176910 336.521820,263.686218 332.262421,269.941040 
	C329.622498,273.817780 329.900787,278.966064 332.939331,282.463287 
	C336.114838,286.118164 341.377136,287.022369 345.681641,284.652771 
	C350.147400,282.194427 351.684631,277.650024 349.756927,271.007538 
M258.620270,391.985779 
	C260.210480,400.044708 265.434326,403.712982 272.829926,401.963898 
	C278.859955,400.537811 282.311005,393.623505 280.433685,386.729492 
	C278.655212,380.198273 272.622223,376.969666 265.983307,378.996368 
	C261.161377,380.468384 258.943970,384.105377 258.620270,391.985779 
M222.055145,386.546051 
	C219.155350,386.937347 214.759613,386.338623 213.696289,387.945312 
	C211.978256,390.541260 211.671158,394.716919 212.210205,397.987732 
	C212.806259,401.604401 224.167191,404.031738 226.898956,401.529022 
	C227.335999,401.128601 227.665268,400.371063 227.670349,399.775421 
	C227.724014,393.478302 227.776962,387.178406 227.601654,380.885651 
	C227.580673,380.132629 226.204758,379.417358 225.456863,378.684570 
	C224.769226,379.479279 223.717850,380.176208 223.472229,381.089783 
	C223.009674,382.810242 223.011673,384.655640 222.055145,386.546051 
M234.746826,386.125610 
	C233.837158,386.932953 232.927475,387.740295 231.705414,388.824890 
	C235.238190,390.849792 239.496445,386.238373 241.512741,391.832916 
	C239.469406,392.176544 237.714645,392.502411 235.950073,392.761505 
	C232.950119,393.201996 230.679611,394.556549 231.267853,397.921204 
	C231.847977,401.239441 234.413086,402.422974 237.603119,402.212769 
	C240.064606,402.050659 242.517014,401.750366 245.012329,401.507690 
	C248.424606,390.202545 245.148483,384.815063 234.746826,386.125610 
M152.192581,391.488556 
	C152.193649,393.486725 151.880402,395.552582 152.291824,397.462341 
	C152.642700,399.091034 153.826736,400.540253 154.642212,402.068848 
	C155.351288,400.598907 156.592194,399.157135 156.671783,397.653870 
	C156.932068,392.737610 156.769455,387.798981 156.769455,383.055176 
	C160.017853,382.427887 162.451920,381.957825 165.422241,381.384216 
	C161.818146,377.978149 147.510757,377.889008 143.384781,381.277802 
	C146.569870,381.939362 149.120026,382.469055 152.192673,383.107269 
	C152.192673,385.585297 152.192673,388.051575 152.192581,391.488556 
M298.355011,387.429657 
	C294.086487,386.858917 289.817993,386.288177 284.714600,385.605804 
	C284.714600,390.769073 284.618286,395.341095 284.811981,399.900818 
	C284.843292,400.637665 286.164246,401.319702 286.889069,402.027069 
	C287.536987,401.204956 288.635834,400.438965 288.746429,399.549988 
	C289.052063,397.094391 288.590088,394.503906 289.147614,392.135284 
	C289.434662,390.915680 291.179016,389.375580 292.391418,389.255219 
	C293.298523,389.165192 295.013519,390.973480 295.295593,392.186157 
	C295.810455,394.399200 295.336517,396.825317 295.667389,399.105652 
	C295.819733,400.155548 296.898376,401.071014 297.557007,402.047455 
	C298.307007,401.150391 299.708923,400.242188 299.693787,399.358185 
	C299.629456,395.589172 299.146088,391.827362 298.355011,387.429657 
M353.606293,386.832336 
	C347.392242,384.518402 343.212433,386.105896 341.576294,391.401337 
	C340.123352,396.103729 342.636536,400.846466 347.192383,401.999695 
	C351.887512,403.188141 355.218750,401.779053 355.784576,398.365265 
	C347.135651,399.239929 347.135651,399.239929 346.200958,394.825562 
	C349.277130,394.825562 352.847046,395.870697 355.092743,394.591370 
	C358.874725,392.436798 355.808594,389.622833 353.606293,386.832336 
M189.274109,394.194946 
	C189.598419,388.813446 187.448898,385.949463 182.858688,385.647247 
	C178.400421,385.353729 174.826263,388.325958 174.214218,392.835815 
	C173.584305,397.477356 176.550034,401.459045 181.150146,402.147736 
	C185.883789,402.856384 188.186630,401.728088 188.812576,398.393402 
	C180.181274,399.153564 180.181274,399.153564 179.219818,395.202332 
	C182.381470,395.043640 185.515015,394.886383 189.274109,394.194946 
M203.821945,392.135742 
	C203.856598,394.623199 203.733398,397.128510 204.011627,399.588409 
	C204.108917,400.448792 205.194626,401.197327 205.828949,401.996948 
	C206.534698,401.254242 207.808777,400.539856 207.847443,399.763916 
	C208.011826,396.464722 208.273499,393.041168 207.549576,389.880646 
	C207.179398,388.264557 204.982269,386.295410 203.295410,385.925934 
	C200.480362,385.309296 197.401642,385.734222 194.459457,386.001556 
	C193.894836,386.052887 193.044067,387.382477 193.014679,388.148773 
	C192.868607,391.957703 192.842957,395.781311 193.042725,399.585663 
	C193.086456,400.418549 194.222992,401.194061 194.856247,401.996002 
	C195.569656,401.091980 196.744141,400.260925 196.901077,399.268860 
	C197.234344,397.162384 196.704483,394.895599 197.175293,392.842865 
	C197.491913,391.462433 198.711136,389.680145 199.911041,389.303894 
	C200.869293,389.003479 202.407791,390.553680 203.821945,392.135742 
M338.001129,396.402344 
	C337.501068,393.360565 337.897522,388.397858 336.321136,387.662109 
	C332.619141,385.934265 327.973846,386.227478 322.977905,385.612549 
	C322.977905,390.797455 322.904480,395.375153 323.055481,399.945496 
	C323.078644,400.646667 324.136108,401.313629 324.715271,401.996429 
	C325.463379,401.305542 326.757751,400.685669 326.858521,399.910583 
	C327.176941,397.460968 326.644226,394.849243 327.246887,392.507629 
	C327.600372,391.134186 329.486511,390.155182 330.683258,388.998779 
	C331.737457,390.203217 333.161652,391.255798 333.736908,392.656860 
	C334.262817,393.937714 333.629669,395.648926 333.944946,397.073608 
	C334.320068,398.768860 335.162079,400.360779 335.801819,401.997467 
	C336.534790,400.436279 337.267761,398.875061 338.001129,396.402344 
M308.003448,382.124481 
	C307.343048,381.013489 306.682678,379.902496 306.022308,378.791504 
	C305.325378,379.854492 304.072052,380.894470 304.026947,381.984406 
	C303.822174,386.937164 303.808228,391.910309 304.018250,396.863708 
	C304.186127,400.822937 306.867035,402.975403 310.163086,402.100952 
	C310.830933,401.923767 311.678894,401.297974 311.841400,400.711945 
	C311.964386,400.268494 311.078339,399.587128 310.728973,398.962646 
	C309.796783,397.296295 308.330292,395.669525 308.130188,393.907349 
	C307.722260,390.314758 308.006775,386.643585 308.003448,382.124481 
M314.169586,389.245239 
	C314.179779,392.533722 314.031677,395.834869 314.293427,399.103210 
	C314.375427,400.127441 315.560822,401.063324 316.241150,402.039642 
	C317.050964,401.023865 318.464325,400.061005 318.558929,398.982483 
	C318.859558,395.556427 318.783661,392.080811 318.592346,388.638885 
	C318.539886,387.695068 317.572784,386.802094 317.025391,385.885803 
	C316.084473,386.735840 315.143585,387.585876 314.169586,389.245239 
M167.138245,386.594788 
	C166.987167,390.898804 166.732285,395.203857 166.774429,399.505981 
	C166.782654,400.345795 167.944077,401.174255 168.573624,402.007965 
	C169.278168,401.436676 170.571350,400.886810 170.593033,400.290649 
	C170.749771,395.981750 170.736389,391.658844 170.506729,387.354828 
	C170.481552,386.882690 168.746887,386.501740 167.138245,386.594788 
z"/>
<path fill="#7652FD" opacity="1.000000" stroke="none" 
	d="
M189.646255,168.957550 
	C198.733643,169.756653 202.881973,166.096832 203.139389,157.492218 
	C203.149338,157.159210 203.130569,156.824829 203.151321,156.492722 
	C203.417389,152.234802 202.123032,146.331192 204.390778,144.174698 
	C206.736862,141.943726 212.541428,143.342087 216.833893,143.171188 
	C217.832031,143.131454 218.849609,143.283142 219.829956,143.145462 
	C223.769730,142.592255 225.215820,144.198853 224.914185,148.168793 
	C224.624832,151.977005 224.730957,155.836365 224.948975,159.656921 
	C225.250870,164.946762 228.980072,168.724564 234.061554,169.239395 
	C239.507446,169.791153 244.224747,166.851868 245.147949,161.436478 
	C245.923126,156.889389 245.837311,152.161362 245.777740,147.518021 
	C245.737396,144.372620 246.628647,143.094116 250.004532,143.109695 
	C274.823975,143.224319 299.644867,143.072037 324.463806,143.234528 
	C333.420624,143.293137 338.682465,149.896774 335.920746,157.084518 
	C333.889709,162.370529 329.518585,163.880081 324.276733,163.871902 
	C307.448029,163.845657 290.619110,163.834747 273.790497,163.884445 
	C268.114960,163.901199 264.295135,166.535049 263.039459,171.024277 
	C261.147644,177.787842 265.639130,183.820221 272.879272,183.966919 
	C280.707153,184.125565 288.547760,183.847107 296.367493,184.151886 
	C302.420441,184.387802 306.643005,188.849930 306.684601,194.302322 
	C306.725952,199.722824 302.580658,203.849274 296.401825,204.475616 
	C295.079712,204.609634 293.739899,204.590729 292.407898,204.602509 
	C281.914429,204.695358 271.420746,204.766785 260.927368,204.868866 
	C253.990967,204.936340 249.798447,208.728546 249.815826,214.867706 
	C249.833145,220.986221 254.042068,224.955750 260.963074,224.969269 
	C279.123657,225.004776 297.284515,224.900070 315.445282,224.857422 
	C317.277740,224.853119 319.113922,224.823288 320.942108,224.921249 
	C327.258667,225.259674 331.777283,229.550247 331.738800,235.111145 
	C331.699890,240.734100 327.174286,245.077240 320.845978,245.128235 
	C306.850677,245.241013 292.853851,245.164505 278.857666,245.180664 
	C277.194183,245.182587 275.506683,245.119247 273.871765,245.363510 
	C268.081482,246.228638 264.492157,250.467789 264.734589,255.984467 
	C264.977539,261.512543 268.910431,265.314270 274.945557,265.389130 
	C285.607697,265.521454 296.272797,265.403473 306.936279,265.459534 
	C309.258759,265.471741 311.619659,265.562775 313.893188,265.989044 
	C318.812500,266.911407 322.035187,271.014435 321.990112,275.939240 
	C321.945892,280.771515 318.538574,284.899139 313.666718,285.753632 
	C311.880585,286.066895 310.015839,285.992462 308.186951,285.992920 
	C261.699524,286.004089 215.212112,286.003693 168.724701,286.000519 
	C154.960007,285.999573 150.249298,280.615417 151.296356,266.822479 
	C153.955841,231.788849 156.560043,196.750061 158.936646,161.696411 
	C159.953598,146.696945 166.283401,141.328979 182.163391,143.802521 
	C182.163391,148.231827 182.207367,152.817184 182.151932,157.401321 
	C182.087219,162.752762 184.098892,166.767715 189.646255,168.957550 
z"/>
<path fill="#BDD3FB" opacity="1.000000" stroke="none" 
	d="
M204.062576,91.932259 
	C223.557495,85.614174 240.479630,97.856400 240.526474,117.955841 
	C240.556747,130.943054 240.502579,143.930511 240.550125,156.917633 
	C240.564224,160.769043 239.965103,164.188034 235.145615,164.133530 
	C230.280945,164.078522 229.940414,160.571655 229.958817,156.767395 
	C230.022461,143.614014 230.208420,130.454575 229.901077,117.307877 
	C229.593658,104.157791 216.882523,96.636353 206.029388,102.959122 
	C200.532776,106.161316 198.024429,111.195351 198.019485,117.504601 
	C198.009705,129.992386 198.015244,142.480164 198.014160,154.967941 
	C198.014069,156.133469 198.025406,157.299179 198.008347,158.464478 
	C197.960129,161.757126 196.477219,163.892914 193.047577,164.155563 
	C189.240555,164.447098 187.276520,162.063538 187.278305,158.739868 
	C187.286636,143.269363 187.039749,127.767075 187.959534,112.340271 
	C188.538681,102.626572 194.973450,96.132896 204.062576,91.932259 
z"/>
<path fill="#8C8DF8" opacity="1.000000" stroke="none" 
	d="
M41.563770,357.403748 
	C41.519703,347.640686 41.639355,338.327972 41.433624,329.022400 
	C41.352142,325.336853 42.557549,323.936310 46.303997,324.162018 
	C52.101875,324.511383 57.979195,324.022797 63.720398,324.725922 
	C73.793434,325.959534 76.690331,333.014557 70.829971,341.491547 
	C74.552773,344.764496 75.849648,348.795410 73.816727,353.509857 
	C71.748741,358.305725 67.407143,359.636719 62.795715,359.865051 
	C56.824631,360.160706 50.826576,360.085541 44.848236,359.903656 
	C43.744801,359.870117 42.679840,358.571594 41.563770,357.403748 
M55.025314,350.847900 
	C55.990421,350.945801 57.078350,351.369873 57.891308,351.063721 
	C59.057507,350.624603 60.023151,349.652924 61.074413,348.908569 
	C59.979378,347.999512 59.001141,346.555695 57.766464,346.286041 
	C54.608021,345.596222 53.698284,347.375214 55.025314,350.847900 
M55.724754,337.820099 
	C57.325626,336.922424 58.926502,336.024719 60.527363,335.127045 
	C59.053730,334.426361 57.580097,333.725677 56.106472,333.024963 
	C55.729916,334.539734 55.353355,336.054535 55.724754,337.820099 
z"/>
<path fill="#8C8DF8" opacity="1.000000" stroke="none" 
	d="
M183.010498,351.495514 
	C183.009995,352.251678 183.009979,352.584839 183.009644,352.917999 
	C183.002914,359.462158 178.759628,362.373413 172.704987,359.772552 
	C171.855423,359.407562 171.103912,357.743774 171.090088,356.671082 
	C170.965591,347.011108 170.946762,337.347687 171.107880,327.688812 
	C171.126801,326.555450 172.438324,324.471527 173.117767,324.485016 
	C176.554764,324.553162 180.602051,322.531067 183.186905,326.555511 
	C185.506042,330.166290 187.711533,333.850037 191.091705,337.380157 
	C191.091705,334.185699 190.747070,330.935272 191.252411,327.822876 
	C191.470596,326.479034 193.335632,324.539459 194.640991,324.376099 
	C202.804977,323.354309 203.095657,323.738098 203.096573,331.790955 
	C203.097427,339.287048 203.209625,346.786011 203.017532,354.277191 
	C202.969101,356.165436 201.957764,359.635193 201.366943,359.639923 
	C197.808624,359.668518 193.626266,361.832733 190.835480,357.664948 
	C188.568771,354.279785 186.282364,350.907867 183.218979,346.364868 
	C183.106720,348.904541 183.058792,349.988525 183.010498,351.495514 
z"/>
<path fill="#8C8DF8" opacity="1.000000" stroke="none" 
	d="
M380.008118,333.013977 
	C382.492767,333.441162 384.568237,333.871735 386.970886,334.370178 
	C386.970886,331.101593 386.970886,327.967712 386.970886,323.940582 
	C390.500458,323.940582 393.758606,323.724243 396.950073,324.089966 
	C397.766876,324.183533 398.965057,326.107758 398.982880,327.207275 
	C399.141937,337.012695 399.018585,346.822327 399.113098,356.629395 
	C399.138763,359.289642 398.015991,360.050995 395.524841,360.044556 
	C390.424469,360.031311 385.413666,359.264435 380.185089,360.274597 
	C374.932648,361.289337 370.955231,357.697784 369.970215,352.270477 
	C369.416138,349.217529 369.257080,345.967804 369.639252,342.896210 
	C370.420929,336.614838 373.052277,334.251160 380.008118,333.013977 
M382.838867,350.600159 
	C386.857574,352.145782 387.217896,349.314117 386.890106,346.746399 
	C386.687347,345.157684 385.216644,343.730865 384.315125,342.231354 
	C383.509003,343.985321 382.584290,345.698334 381.957581,347.514191 
	C381.720612,348.200806 382.171814,349.124969 382.838867,350.600159 
z"/>
<path fill="#8C8CF8" opacity="1.000000" stroke="none" 
	d="
M325.352570,359.995667 
	C322.762085,359.978088 320.511505,359.535950 318.495392,360.037170 
	C311.149017,361.863495 305.460632,358.369751 304.301147,350.844116 
	C303.974365,348.723267 303.972198,346.513702 304.119385,344.365295 
	C304.760468,335.007904 310.430756,331.641846 321.524109,334.221863 
	C321.692352,330.948730 321.857849,327.728516 322.011749,324.734283 
	C322.680481,324.367615 322.954346,324.097229 323.247894,324.073792 
	C333.948151,323.219666 333.948456,323.222839 333.948517,333.664856 
	C333.948547,340.496094 333.707977,347.338806 334.034149,354.154419 
	C334.246368,358.589233 333.104980,360.857452 328.295898,360.027588 
	C327.486694,359.887970 326.633118,360.005341 325.352570,359.995667 
M321.765564,345.021393 
	C320.666534,344.134186 319.567505,343.247009 318.468536,342.359772 
	C317.855042,343.913513 316.791443,345.459778 316.765533,347.023254 
	C316.743378,348.358215 317.912994,349.713013 318.555450,351.059052 
	C319.478912,350.593781 320.827942,350.354797 321.224335,349.609283 
	C321.794403,348.537109 321.671143,347.096252 321.765564,345.021393 
z"/>
<path fill="#8A8AF6" opacity="1.000000" stroke="none" 
	d="
M124.905624,353.818787 
	C124.789780,359.743408 120.419228,361.896301 114.139900,359.813721 
	C112.749702,359.352631 110.953941,359.252594 109.590782,359.713440 
	C101.606117,362.413055 95.281342,358.452271 94.922012,350.122040 
	C94.693787,344.831116 94.879349,339.522339 94.879349,333.474121 
	C98.427246,333.474121 101.572182,333.202454 104.619461,333.628784 
	C105.619255,333.768646 106.981918,335.653687 107.109764,336.854492 
	C107.460304,340.146790 107.002251,343.525787 107.360298,346.816467 
	C107.520248,348.286499 108.868103,349.627289 109.676857,351.026733 
	C110.521317,349.696198 111.926628,348.432861 112.095680,347.021423 
	C112.469193,343.903137 112.343628,340.704315 112.189919,337.549652 
	C112.044098,334.556854 113.225899,333.214661 116.246689,333.413391 
	C117.904076,333.522430 119.577957,333.510223 121.237762,333.424316 
	C124.083504,333.277039 125.002838,334.652954 124.938599,337.365509 
	C124.812538,342.688690 124.904213,348.017059 124.905624,353.818787 
z"/>
<path fill="#8A8AF6" opacity="1.000000" stroke="none" 
	d="
M351.248779,359.436035 
	C349.466797,359.924255 348.015137,360.441315 346.550568,360.480713 
	C341.844177,360.607483 337.821594,357.777924 337.048615,353.994263 
	C336.200745,349.844086 338.394867,346.556366 343.534698,344.805420 
	C346.636658,343.748749 349.873169,343.087097 353.049225,342.247925 
	C352.984406,341.843781 352.919556,341.439667 352.854736,341.035522 
	C348.348907,341.370300 343.843048,341.705109 339.378937,342.036804 
	C339.118134,340.815887 338.807037,340.266144 338.948212,339.883118 
	C340.745422,335.007050 345.864166,332.627899 353.554932,333.027893 
	C360.131714,333.369965 364.443604,335.966675 365.135162,341.131683 
	C365.856964,346.523071 365.719482,352.054810 365.556519,357.513245 
	C365.530701,358.378265 363.410187,359.852966 362.226685,359.885040 
	C358.683868,359.980988 355.125458,359.501221 351.248779,359.436035 
z"/>
<path fill="#8B8BF7" opacity="1.000000" stroke="none" 
	d="
M221.141235,333.013397 
	C233.554565,333.390991 238.750595,339.356354 236.771149,350.439850 
	C235.591049,357.047699 231.188461,360.226135 222.804733,360.522858 
	C214.293839,360.824066 209.214890,357.734131 207.676544,351.319092 
	C205.122101,340.666779 209.660095,334.294128 221.141235,333.013397 
M222.500809,352.025787 
	C222.953064,348.858856 223.405334,345.691925 223.857574,342.525024 
	C222.673737,342.510040 221.489899,342.495087 220.306076,342.480103 
	C220.745316,345.658203 221.184540,348.836304 222.500809,352.025787 
z"/>
<path fill="#8A8AF6" opacity="1.000000" stroke="none" 
	d="
M131.479172,337.530762 
	C137.112869,332.256714 143.379578,331.856720 149.837494,334.344818 
	C154.597000,336.178497 156.767273,340.195374 157.377380,345.232239 
	C157.796249,348.690277 156.751358,350.155640 153.110764,349.937042 
	C149.207657,349.702667 145.279602,349.884186 141.362427,349.884186 
	C141.315903,350.480316 141.269379,351.076416 141.222870,351.672546 
	C146.315826,351.672546 151.408798,351.672546 157.019821,351.672546 
	C155.307053,357.739685 151.147202,359.485931 146.422562,360.175873 
	C140.442017,361.049255 134.362366,360.758850 130.744995,355.152588 
	C127.135475,349.558472 127.465424,343.489441 131.479172,337.530762 
z"/>
<path fill="#8989F5" opacity="1.000000" stroke="none" 
	d="
M286.055725,352.689209 
	C290.892517,352.204163 295.349243,351.573181 300.295441,350.872925 
	C300.184082,352.705017 300.335449,353.416138 300.080231,353.922180 
	C297.278076,359.478241 288.939880,362.045837 281.070343,359.831482 
	C274.929565,358.103516 271.544556,352.652740 272.153717,345.473358 
	C272.767273,338.242279 277.360260,333.717712 284.755859,333.058838 
	C293.966553,332.238251 300.426086,337.118713 301.113129,345.181549 
	C301.399323,348.540466 300.540558,350.207886 296.837738,349.935699 
	C293.693481,349.704559 290.505829,349.757904 287.366364,350.025482 
	C286.735840,350.079224 286.235809,351.664246 286.055725,352.689209 
z"/>
<path fill="#898AF5" opacity="1.000000" stroke="none" 
	d="
M419.184204,352.029663 
	C423.283844,351.830933 427.017456,351.830933 430.819916,351.830933 
	C430.880371,352.651245 431.098206,353.209412 430.922394,353.581635 
	C428.204681,359.335510 420.374146,361.963379 412.195007,359.911499 
	C405.727814,358.289093 402.502838,353.190277 402.997559,345.369995 
	C403.434509,338.463104 407.944916,333.885040 415.099976,333.086090 
	C424.794403,332.003601 431.963898,337.639221 432.014404,346.232727 
	C432.029022,348.721008 431.276337,349.956573 428.633606,349.898346 
	C424.507721,349.807495 420.378357,349.874268 416.250488,349.874268 
	C416.118805,350.463287 415.987122,351.052307 415.855408,351.641327 
	C416.843018,351.837006 417.830597,352.032715 419.184204,352.029663 
z"/>
<path fill="#7550FB" opacity="1.000000" stroke="none" 
	d="
M316.306580,190.834244 
	C318.634949,185.857071 322.438446,183.977676 327.359436,184.005295 
	C331.357147,184.027740 335.373627,183.833176 339.348053,184.153458 
	C345.416962,184.642548 349.282593,189.002640 349.121796,194.696960 
	C348.962097,200.352432 344.828613,204.349594 338.703827,204.586731 
	C335.209961,204.722015 331.706696,204.641617 328.207947,204.618561 
	C318.865936,204.557037 315.201416,200.465714 316.306580,190.834244 
z"/>
<path fill="#8A8AF6" opacity="1.000000" stroke="none" 
	d="
M441.355835,334.029785 
	C451.518433,331.408051 459.245605,334.200653 460.867767,341.421967 
	C457.227081,341.628815 453.674957,341.830658 448.895660,342.102234 
	C452.358276,343.129272 455.158234,343.228119 456.857880,344.645966 
	C459.066467,346.488403 461.739777,349.384094 461.731293,351.817871 
	C461.722992,354.219604 459.127289,357.662720 456.774323,358.795776 
	C451.217529,361.471588 445.030396,361.454224 439.361969,358.752777 
	C437.184814,357.715210 435.657318,355.314453 433.833801,353.534851 
	C434.168610,353.158508 434.503418,352.782196 434.838226,352.405884 
	C439.466095,352.405884 444.093964,352.405884 448.721832,352.405884 
	C448.800323,352.174072 448.878845,351.942261 448.957367,351.710419 
	C447.003174,351.137390 445.048309,350.566681 443.094971,349.990845 
	C439.312012,348.875641 435.651550,347.516327 435.034332,342.911865 
	C434.419281,338.323425 437.209656,335.862213 441.355835,334.029785 
z"/>
<path fill="#8A8AF6" opacity="1.000000" stroke="none" 
	d="
M248.077347,357.124329 
	C244.908142,349.400574 241.871384,342.048584 238.228043,333.228027 
	C242.851578,333.663116 247.444305,332.776123 249.789810,334.670898 
	C252.359818,336.747040 252.855682,341.390747 254.748535,346.157288 
	C257.044098,337.836914 258.866089,329.807007 270.302429,334.588745 
	C268.324249,339.373932 266.272125,344.338043 264.219971,349.302155 
	C263.267456,351.606262 262.347931,353.924744 261.355438,356.211517 
	C259.248077,361.066864 251.745499,361.789642 248.077347,357.124329 
z"/>
<path fill="#8E8FFA" opacity="1.000000" stroke="none" 
	d="
M90.364410,345.992950 
	C90.364380,348.485657 90.365143,350.480225 90.363922,352.474792 
	C90.359261,360.058716 88.356880,361.717987 80.947807,359.849945 
	C79.971588,359.603821 78.714561,357.883698 78.696526,356.827301 
	C78.526230,346.857605 78.511078,336.881958 78.727066,326.914001 
	C78.749245,325.890625 80.460983,324.184540 81.571312,324.018860 
	C89.795273,322.791718 90.360931,323.365753 90.363815,331.532806 
	C90.365463,336.186798 90.364235,340.840820 90.364410,345.992950 
z"/>
<path fill="#7550FB" opacity="1.000000" stroke="none" 
	d="
M349.905579,271.366943 
	C351.684631,277.650024 350.147400,282.194427 345.681641,284.652771 
	C341.377136,287.022369 336.114838,286.118164 332.939331,282.463287 
	C329.900787,278.966064 329.622498,273.817780 332.262421,269.941040 
	C336.521820,263.686218 344.570679,264.176910 349.905579,271.366943 
z"/>
<path fill="#8787F3" opacity="1.000000" stroke="none" 
	d="
M258.580017,391.595581 
	C258.943970,384.105377 261.161377,380.468384 265.983307,378.996368 
	C272.622223,376.969666 278.655212,380.198273 280.433685,386.729492 
	C282.311005,393.623505 278.859955,400.537811 272.829926,401.963898 
	C265.434326,403.712982 260.210480,400.044708 258.580017,391.595581 
M263.059784,388.868683 
	C263.254791,390.670197 263.134644,392.579498 263.706757,394.252014 
	C265.142548,398.449432 270.081848,400.043457 273.417419,397.417175 
	C276.978363,394.613495 276.961853,390.480774 275.642914,386.918854 
	C274.900604,384.914185 272.166595,382.768097 270.011841,382.358398 
	C266.171967,381.628265 263.993103,384.387543 263.059784,388.868683 
z"/>
<path fill="#8382EF" opacity="1.000000" stroke="none" 
	d="
M222.437836,386.497559 
	C223.011673,384.655640 223.009674,382.810242 223.472229,381.089783 
	C223.717850,380.176208 224.769226,379.479279 225.456863,378.684570 
	C226.204758,379.417358 227.580673,380.132629 227.601654,380.885651 
	C227.776962,387.178406 227.724014,393.478302 227.670349,399.775421 
	C227.665268,400.371063 227.335999,401.128601 226.898956,401.529022 
	C224.167191,404.031738 212.806259,401.604401 212.210205,397.987732 
	C211.671158,394.716919 211.978256,390.541260 213.696289,387.945312 
	C214.759613,386.338623 219.155350,386.937347 222.437836,386.497559 
M215.769684,395.868774 
	C217.211288,396.902527 218.560547,398.480591 220.132324,398.747253 
	C220.954880,398.886780 222.784241,396.863312 223.077682,395.571167 
	C223.703293,392.816467 223.839951,389.449554 219.934753,389.059601 
	C215.605865,388.627319 215.498672,391.979187 215.769684,395.868774 
z"/>
<path fill="#8382EF" opacity="1.000000" stroke="none" 
	d="
M235.114960,386.046478 
	C245.148483,384.815063 248.424606,390.202545 245.012329,401.507690 
	C242.517014,401.750366 240.064606,402.050659 237.603119,402.212769 
	C234.413086,402.422974 231.847977,401.239441 231.267853,397.921204 
	C230.679611,394.556549 232.950119,393.201996 235.950073,392.761505 
	C237.714645,392.502411 239.469406,392.176544 241.512741,391.832916 
	C239.496445,386.238373 235.238190,390.849792 231.705414,388.824890 
	C232.927475,387.740295 233.837158,386.932953 235.114960,386.046478 
z"/>
<path fill="#8382EF" opacity="1.000000" stroke="none" 
	d="
M152.192627,391.003174 
	C152.192673,388.051575 152.192673,385.585297 152.192673,383.107269 
	C149.120026,382.469055 146.569870,381.939362 143.384781,381.277802 
	C147.510757,377.889008 161.818146,377.978149 165.422241,381.384216 
	C162.451920,381.957825 160.017853,382.427887 156.769455,383.055176 
	C156.769455,387.798981 156.932068,392.737610 156.671783,397.653870 
	C156.592194,399.157135 155.351288,400.598907 154.642212,402.068848 
	C153.826736,400.540253 152.642700,399.091034 152.291824,397.462341 
	C151.880402,395.552582 152.193649,393.486725 152.192627,391.003174 
z"/>
<path fill="#8787F3" opacity="1.000000" stroke="none" 
	d="
M298.585327,387.746277 
	C299.146088,391.827362 299.629456,395.589172 299.693787,399.358185 
	C299.708923,400.242188 298.307007,401.150391 297.557007,402.047455 
	C296.898376,401.071014 295.819733,400.155548 295.667389,399.105652 
	C295.336517,396.825317 295.810455,394.399200 295.295593,392.186157 
	C295.013519,390.973480 293.298523,389.165192 292.391418,389.255219 
	C291.179016,389.375580 289.434662,390.915680 289.147614,392.135284 
	C288.590088,394.503906 289.052063,397.094391 288.746429,399.549988 
	C288.635834,400.438965 287.536987,401.204956 286.889069,402.027069 
	C286.164246,401.319702 284.843292,400.637665 284.811981,399.900818 
	C284.618286,395.341095 284.714600,390.769073 284.714600,385.605804 
	C289.817993,386.288177 294.086487,386.858917 298.585327,387.746277 
z"/>
<path fill="#8685F2" opacity="1.000000" stroke="none" 
	d="
M353.903717,387.055847 
	C355.808594,389.622833 358.874725,392.436798 355.092743,394.591370 
	C352.847046,395.870697 349.277130,394.825562 346.200958,394.825562 
	C347.135651,399.239929 347.135651,399.239929 355.784576,398.365265 
	C355.218750,401.779053 351.887512,403.188141 347.192383,401.999695 
	C342.636536,400.846466 340.123352,396.103729 341.576294,391.401337 
	C343.212433,386.105896 347.392242,384.518402 353.903717,387.055847 
M351.025604,392.600281 
	C351.576874,391.864594 352.128174,391.128906 352.679443,390.393219 
	C351.613129,389.720001 350.389465,388.336609 349.515289,388.530304 
	C347.980835,388.870392 346.660431,390.176361 345.250397,391.077728 
	C345.480927,391.518799 345.711487,391.959839 345.942017,392.400879 
	C347.386108,392.479584 348.830200,392.558289 351.025604,392.600281 
z"/>
<path fill="#8685F2" opacity="1.000000" stroke="none" 
	d="
M188.961334,394.462036 
	C185.515015,394.886383 182.381470,395.043640 179.219818,395.202332 
	C180.181274,399.153564 180.181274,399.153564 188.812576,398.393402 
	C188.186630,401.728088 185.883789,402.856384 181.150146,402.147736 
	C176.550034,401.459045 173.584305,397.477356 174.214218,392.835815 
	C174.826263,388.325958 178.400421,385.353729 182.858688,385.647247 
	C187.448898,385.949463 189.598419,388.813446 188.961334,394.462036 
M185.586655,390.160706 
	C182.424423,387.008240 180.296936,388.052979 179.181107,393.078003 
	C181.408112,392.336121 183.635132,391.594269 185.586655,390.160706 
z"/>
<path fill="#8A8AF6" opacity="1.000000" stroke="none" 
	d="
M203.755341,391.709106 
	C202.407791,390.553680 200.869293,389.003479 199.911041,389.303894 
	C198.711136,389.680145 197.491913,391.462433 197.175293,392.842865 
	C196.704483,394.895599 197.234344,397.162384 196.901077,399.268860 
	C196.744141,400.260925 195.569656,401.091980 194.856247,401.996002 
	C194.222992,401.194061 193.086456,400.418549 193.042725,399.585663 
	C192.842957,395.781311 192.868607,391.957703 193.014679,388.148773 
	C193.044067,387.382477 193.894836,386.052887 194.459457,386.001556 
	C197.401642,385.734222 200.480362,385.309296 203.295410,385.925934 
	C204.982269,386.295410 207.179398,388.264557 207.549576,389.880646 
	C208.273499,393.041168 208.011826,396.464722 207.847443,399.763916 
	C207.808777,400.539856 206.534698,401.254242 205.828949,401.996948 
	C205.194626,401.197327 204.108917,400.448792 204.011627,399.588409 
	C203.733398,397.128510 203.856598,394.623199 203.755341,391.709106 
z"/>
<path fill="#8A8AF6" opacity="1.000000" stroke="none" 
	d="
M338.000916,396.858093 
	C337.267761,398.875061 336.534790,400.436279 335.801819,401.997467 
	C335.162079,400.360779 334.320068,398.768860 333.944946,397.073608 
	C333.629669,395.648926 334.262817,393.937714 333.736908,392.656860 
	C333.161652,391.255798 331.737457,390.203217 330.683228,388.998779 
	C329.486511,390.155182 327.600372,391.134186 327.246887,392.507629 
	C326.644226,394.849243 327.176941,397.460968 326.858521,399.910583 
	C326.757751,400.685669 325.463379,401.305542 324.715271,401.996399 
	C324.136108,401.313629 323.078644,400.646667 323.055481,399.945496 
	C322.904480,395.375153 322.977905,390.797455 322.977905,385.612549 
	C327.973846,386.227478 332.619141,385.934265 336.321136,387.662109 
	C337.897522,388.397858 337.501068,393.360565 338.000916,396.858093 
z"/>
<path fill="#8C8DF8" opacity="1.000000" stroke="none" 
	d="
M308.004761,382.564636 
	C308.006775,386.643585 307.722260,390.314758 308.130188,393.907349 
	C308.330292,395.669525 309.796783,397.296295 310.728973,398.962646 
	C311.078339,399.587128 311.964386,400.268494 311.841400,400.711945 
	C311.678894,401.297974 310.830933,401.923767 310.163086,402.100952 
	C306.867035,402.975403 304.186127,400.822937 304.018250,396.863708 
	C303.808228,391.910309 303.822174,386.937164 304.026947,381.984406 
	C304.072052,380.894470 305.325378,379.854492 306.022308,378.791504 
	C306.682678,379.902496 307.343048,381.013489 308.004761,382.564636 
z"/>
<path fill="#7B79E7" opacity="1.000000" stroke="none" 
	d="
M314.186127,388.840576 
	C315.143585,387.585876 316.084473,386.735840 317.025391,385.885803 
	C317.572784,386.802094 318.539886,387.695068 318.592346,388.638885 
	C318.783661,392.080811 318.859558,395.556427 318.558929,398.982483 
	C318.464325,400.061005 317.050964,401.023865 316.241150,402.039642 
	C315.560822,401.063324 314.375427,400.127441 314.293427,399.103210 
	C314.031677,395.834869 314.179779,392.533722 314.186127,388.840576 
z"/>
<path fill="#8787F3" opacity="1.000000" stroke="none" 
	d="
M167.471664,386.336639 
	C168.746887,386.501740 170.481552,386.882690 170.506729,387.354828 
	C170.736389,391.658844 170.749771,395.981750 170.593033,400.290649 
	C170.571350,400.886810 169.278168,401.436676 168.573624,402.007965 
	C167.944077,401.174255 166.782654,400.345795 166.774429,399.505981 
	C166.732285,395.203857 166.987167,390.898804 167.471664,386.336639 
z"/>
<path fill="#200C89" opacity="1.000000" stroke="none" 
	d="
M54.727867,350.553833 
	C53.698284,347.375214 54.608021,345.596222 57.766464,346.286041 
	C59.001141,346.555695 59.979378,347.999512 61.074413,348.908569 
	C60.023151,349.652924 59.057507,350.624603 57.891308,351.063721 
	C57.078350,351.369873 55.990421,350.945801 54.727867,350.553833 
z"/>
<path fill="#301F99" opacity="1.000000" stroke="none" 
	d="
M55.350777,337.694702 
	C55.353355,336.054535 55.729916,334.539734 56.106468,333.024963 
	C57.580097,333.725677 59.053730,334.426361 60.527370,335.127014 
	C58.926502,336.024719 57.325626,336.922424 55.350777,337.694702 
z"/>
<path fill="#200C89" opacity="1.000000" stroke="none" 
	d="
M382.574097,350.270508 
	C382.171814,349.124969 381.720612,348.200806 381.957581,347.514191 
	C382.584290,345.698334 383.509003,343.985321 384.315125,342.231354 
	C385.216644,343.730865 386.687347,345.157684 386.890106,346.746399 
	C387.217896,349.314117 386.857574,352.145782 382.574097,350.270508 
z"/>
<path fill="#200C89" opacity="1.000000" stroke="none" 
	d="
M321.804688,345.417084 
	C321.671143,347.096252 321.794403,348.537109 321.224335,349.609283 
	C320.827942,350.354797 319.478912,350.593781 318.555450,351.059052 
	C317.912994,349.713013 316.743378,348.358215 316.765533,347.023254 
	C316.791443,345.459778 317.855042,343.913513 318.468506,342.359802 
	C319.567505,343.247009 320.666534,344.134186 321.804688,345.417084 
z"/>
<path fill="#1D0886" opacity="1.000000" stroke="none" 
	d="
M222.062286,352.020081 
	C221.184540,348.836304 220.745316,345.658203 220.306061,342.480103 
	C221.489899,342.495087 222.673737,342.510040 223.857574,342.525024 
	C223.405334,345.691925 222.953064,348.858856 222.062286,352.020081 
z"/>
<path fill="#1D0886" opacity="1.000000" stroke="none" 
	d="
M263.106110,388.464630 
	C263.993103,384.387543 266.171967,381.628265 270.011841,382.358398 
	C272.166595,382.768097 274.900604,384.914185 275.642914,386.918854 
	C276.961853,390.480774 276.978363,394.613495 273.417419,397.417175 
	C270.081848,400.043457 265.142548,398.449432 263.706757,394.252014 
	C263.134644,392.579498 263.254791,390.670197 263.106110,388.464630 
z"/>
<path fill="#200C89" opacity="1.000000" stroke="none" 
	d="
M215.683502,395.496979 
	C215.498672,391.979187 215.605865,388.627319 219.934753,389.059601 
	C223.839951,389.449554 223.703293,392.816467 223.077682,395.571167 
	C222.784241,396.863312 220.954880,398.886780 220.132324,398.747253 
	C218.560547,398.480591 217.211288,396.902527 215.683502,395.496979 
z"/>
<path fill="#301F99" opacity="1.000000" stroke="none" 
	d="
M350.649963,392.618652 
	C348.830200,392.558289 347.386108,392.479584 345.942017,392.400879 
	C345.711487,391.959839 345.480927,391.518799 345.250397,391.077728 
	C346.660431,390.176361 347.980835,388.870392 349.515289,388.530304 
	C350.389465,388.336609 351.613129,389.720001 352.679443,390.393219 
	C352.128174,391.128906 351.576874,391.864594 350.649963,392.618652 
z"/>
<path fill="#301F99" opacity="1.000000" stroke="none" 
	d="
M185.724396,390.506531 
	C183.635132,391.594269 181.408112,392.336121 179.181107,393.078003 
	C180.296936,388.052979 182.424423,387.008240 185.724396,390.506531 
z"/>
</svg>